<?xml version="1.0" standalone="no"?>
<!DOCTYPE svg PUBLIC "-//W3C//DTD SVG 20010904//EN"
 "http://www.w3.org/TR/2001/REC-SVG-20010904/DTD/svg10.dtd">
<svg version="1.0" xmlns="http://www.w3.org/2000/svg"
 width="320.000000pt" height="320.000000pt" viewBox="0 0 320.000000 320.000000"
 preserveAspectRatio="xMidYMid meet">
<metadata>
Created by potrace 1.14, written by Peter Selinger 2001-2017
</metadata>
<g transform="translate(0.000000,320.000000) scale(0.100000,-0.100000)"
fill="#000000" stroke="none">
<path d="M1668 3183 c-43 -8 -78 -19 -78 -25 0 -5 -4 -7 -9 -3 -9 5 -140 -42
-151 -54 -3 -3 -26 -17 -52 -30 -59 -29 -181 -130 -238 -196 -89 -103 -173
-259 -195 -364 -2 -9 -10 -43 -18 -77 -14 -59 -21 -279 -9 -299 3 -5 7 -23 8
-40 1 -16 2 -31 4 -32 1 -2 4 -7 5 -13 1 -5 4 -13 5 -17 1 -5 2 -11 1 -16 -4
-26 110 -272 139 -297 3 -3 19 -23 35 -45 34 -45 119 -130 160 -160 16 -11 33
-24 39 -30 6 -5 33 -21 59 -35 26 -13 47 -29 47 -34 0 -5 3 -6 6 -3 4 4 19 0
33 -8 32 -18 163 -62 211 -70 64 -12 219 -21 240 -15 3 1 23 3 46 5 262 24
527 186 676 414 73 111 98 173 146 353 14 53 12 277 -3 342 -7 31 -11 56 -8
56 3 0 1 6 -4 13 -9 10 -19 41 -28 82 -3 10 -44 95 -79 161 -9 18 -23 37 -31
44 -8 7 -15 16 -15 21 0 37 -249 259 -289 259 -6 0 -11 3 -11 8 0 4 -12 13
-27 19 -51 22 -108 45 -113 46 -3 0 -20 6 -38 14 -18 7 -37 11 -42 8 -5 -3
-11 -1 -14 4 -17 26 -290 36 -408 14z"/>
<path d="M245 1179 c-31 -15 -53 -61 -44 -88 6 -14 5 -20 -1 -16 -7 4 -7 -3 0
-19 5 -14 6 -27 2 -30 -7 -4 -8 -72 -2 -86 1 -3 1 -9 0 -15 -6 -29 -5 -107 2
-111 5 -3 5 -10 1 -17 -9 -15 -10 -57 -1 -63 4 -3 3 -15 -1 -27 -5 -12 -5 -34
0 -49 4 -15 4 -30 0 -32 -8 -5 -7 -73 1 -82 4 -3 3 -17 -2 -30 -6 -14 -6 -26
1 -29 5 -4 6 -12 2 -18 -10 -16 -10 -77 -1 -83 5 -3 6 -10 2 -15 -9 -16 -11
-110 -2 -115 5 -3 6 -10 2 -15 -5 -9 -9 -122 -4 -144 1 -5 3 -14 5 -20 1 -5 3
-18 3 -27 4 -39 47 -46 267 -46 168 0 214 3 232 15 13 9 20 19 17 24 -3 5 0 9
5 9 6 0 11 14 11 30 0 17 3 31 8 31 4 1 16 3 27 4 11 1 44 6 72 9 105 14 239
7 303 -17 93 -34 202 -71 230 -78 19 -5 44 -12 55 -15 11 -3 52 -7 90 -9 61
-3 82 1 160 32 50 19 96 35 103 35 6 1 12 4 12 7 0 4 25 17 55 30 30 13 55 28
55 32 0 5 8 9 19 9 10 0 30 9 44 20 14 11 27 20 30 20 7 0 171 93 177 100 3 4
12 9 20 13 30 13 122 69 513 314 126 79 233 143 237 143 4 0 11 7 14 16 3 8
11 12 16 9 6 -4 10 -3 9 2 -1 4 -1 10 1 13 17 46 -4 104 -62 163 -21 22 -38
43 -38 48 0 5 -6 9 -13 9 -8 0 -22 9 -32 20 -10 11 -22 17 -26 14 -5 -3 -9 -1
-9 3 0 5 -17 15 -37 23 -117 43 -183 33 -374 -57 -57 -27 -125 -58 -151 -69
-27 -10 -48 -22 -48 -26 0 -5 -6 -8 -14 -8 -8 0 -41 -14 -75 -30 -110 -55
-106 -55 -142 -7 -50 65 -76 87 -121 103 -67 23 -65 24 -365 -32 -13 -3 -35
-6 -50 -8 -16 -3 -53 -10 -83 -16 -99 -19 -155 -17 -215 9 -182 79 -210 87
-291 85 -39 -2 -77 -4 -85 -6 -11 -2 -15 11 -16 56 -2 49 -7 64 -29 87 l-26
28 -212 0 c-120 0 -220 -4 -231 -10z"/>
</g>
</svg>
